<svg viewBox="0 0 417 417" xmlns="http://www.w3.org/2000/svg" fill-rule="evenodd" clip-rule="evenodd" stroke-linejoin="round" stroke-miterlimit="2"><path d="M286.6 340.204l61.912 61.912c13.008 13.009 34.131 13.009 47.14 0 13.009-13.008 13.009-34.131 0-47.14l-59.501-59.501c23.25-30.438 37.069-68.47 37.069-109.703 0-99.889-81.096-180.985-180.984-180.985S11.251 85.883 11.251 185.772c0 99.888 81.097 180.984 180.985 180.984 34.561 0 66.873-9.709 94.364-26.552zm-94.364-268.75c63.094 0 114.318 51.224 114.318 114.318 0 63.093-51.224 114.317-114.318 114.317S77.918 248.865 77.918 185.772c0-63.094 51.224-114.318 114.318-114.318z"/></svg>